<svg width="35" height="10" viewBox="0 0 35 10" fill="none" xmlns="http://www.w3.org/2000/svg">
<path d="M0.78 0.588H3.156C3.72 0.588 4.272 0.696 4.788 0.912C5.292 1.128 5.736 1.428 6.12 1.812C6.516 2.208 6.816 2.652 7.02 3.156C7.248 3.672 7.356 4.224 7.356 4.788C7.356 5.364 7.248 5.916 7.02 6.432C6.816 6.936 6.516 7.38 6.12 7.764C5.736 8.148 5.292 8.46 4.788 8.664C4.272 8.892 3.72 9 3.156 9H1.464V8.988H0.78V0.588ZM2.46 7.32H3.156C4.548 7.32 5.676 6.18 5.676 4.788C5.676 3.396 4.548 2.268 3.156 2.268H2.46V7.32ZM14.2824 0.588V2.268H10.3584V3.816H13.5984V5.496H10.3584V7.32H14.2464V9H8.67844V0.588H14.2824ZM22.3426 9V3.852L19.9306 6.048L17.5186 3.852V9H15.8386V0.588H16.4146L19.9306 3.78L23.4346 0.588H24.0226V9H22.3426ZM29.8129 0.431999C32.2129 0.431999 34.1689 2.388 34.1689 4.788C34.1689 7.188 32.2129 9.144 29.8129 9.144C27.4129 9.144 25.4569 7.188 25.4569 4.788C25.4569 2.388 27.4129 0.431999 29.8129 0.431999ZM29.8129 2.16C28.3609 2.16 27.1849 3.336 27.1849 4.788C27.1849 6.24 28.3609 7.416 29.8129 7.416C31.2649 7.416 32.4409 6.24 32.4409 4.788C32.4409 3.336 31.2649 2.16 29.8129 2.16Z" fill="#001B1B"/>
</svg>
