<svg width="174" height="70" viewBox="0 0 174 70" fill="none" xmlns="http://www.w3.org/2000/svg">
<g clip-path="url(#clip0_2350_68311)">
<mask id="mask0_2350_68311" style="mask-type:luminance" maskUnits="userSpaceOnUse" x="0" y="0" width="174" height="70">
<path d="M174 0H0V70H174V0Z" fill="white"/>
</mask>
<g mask="url(#mask0_2350_68311)">
<path d="M23.3723 36.7263H35.2662L15.6328 54.9009H28.7939L41.4504 43.438V54.9009H50.9652V27.6191H23.3723V36.7263Z" fill="#010B21"/>
<path d="M9.23677 28.1767C9.23677 14.7369 18.323 8.47683 27.0287 8.47683C35.7344 8.47683 40.6895 13.4845 42.5971 19.4501L51.2449 16.459C48.3579 7.54047 40.0343 0 27.0287 0C13.0982 0 0 10.3843 0 28.1767C0 30.2231 0.170408 32.167 0.47979 34.0132L9.37246 30.9378C9.28644 30.051 9.23677 29.1329 9.23677 28.1767Z" fill="#010B21"/>
<path d="M90.1134 17.7715H81.2551V39.7627C81.2551 44.6495 78.5832 48.0856 73.4661 48.0856C68.3488 48.0856 65.983 44.1913 65.983 39.6104V17.7715H57.125V41.2135C57.125 49.4604 62.3183 56.0264 71.1762 56.0264C75.5291 56.0264 79.8819 54.1934 81.7151 50.8335C81.7151 52.3604 81.8673 54.1173 82.0211 54.9578H90.4965C90.3443 53.583 90.1143 51.2156 90.1143 48.1617V17.7715H90.1134Z" fill="#010B21"/>
<path d="M116.833 16.9333C111.106 16.9333 106.831 19.605 104.998 22.8128V17.7737H96.4453V69.4667H105.228V50.7595C107.137 53.5851 111.183 55.8747 116.529 55.8747C127.22 55.8747 134.016 47.4756 134.016 36.3271C134.016 25.1785 127.831 16.9316 116.835 16.9316L116.833 16.9333ZM115.154 48.0116C109.35 48.0116 105.15 43.4308 105.15 36.3287C105.15 29.2267 109.35 24.798 115.154 24.798C120.958 24.798 125.157 29.3788 125.157 36.3287C125.157 43.2786 121.033 48.0116 115.154 48.0116Z" fill="#010B21"/>
<path d="M164.605 17.7715L154.6 41.2912L143.909 17.7715H133.906L149.789 50.5307L140.855 70.0006H150.323L173.997 17.7715H164.605Z" fill="#010B21"/>
</g>
</g>
<defs>
<clipPath id="clip0_2350_68311">
<rect width="174" height="70" fill="white"/>
</clipPath>
</defs>
</svg>
